<svg width="1141" height="820" viewBox="0 0 1141 820" fill="none" xmlns="http://www.w3.org/2000/svg">
<g clip-path="url(#clip0_183_2151)">
<rect width="1141" height="894" rx="14" fill="white"/>
<rect x="-28" y="-8" width="1232" height="914" fill="#00A68D"/>
<path fill-rule="evenodd" clip-rule="evenodd" d="M204.319 1172.33C415.879 1172.33 587.382 1000.82 587.382 789.263C587.382 676.164 314.447 769.931 236.501 699.811C168.644 638.766 302.78 406.2 204.319 406.2C-7.24063 406.2 -178.744 577.703 -178.744 789.263C-178.744 1000.82 -7.24063 1172.33 204.319 1172.33Z" fill="#00B69B"/>
<path opacity="0.541829" fill-rule="evenodd" clip-rule="evenodd" d="M711.05 -187.796C668.279 54.7696 830.245 286.081 1072.81 328.852C1202.49 351.717 1150.16 19.824 1246.31 -55.3696C1330.02 -120.831 1569.55 79.9817 1589.46 -32.9091C1632.23 -275.475 1470.26 -506.786 1227.7 -549.557C985.132 -592.328 753.821 -430.362 711.05 -187.796Z" fill="#00B69B"/>
<path opacity="0.6" fill-rule="evenodd" clip-rule="evenodd" d="M158.961 -209.223C-39.84 -136.866 -142.343 82.9523 -69.985 281.754C-31.3027 388.032 193.102 206.571 290.33 245.803C374.974 279.958 328.469 544.375 420.992 510.7C619.793 438.342 722.296 218.524 649.938 19.723C577.58 -179.078 357.763 -281.581 158.961 -209.223Z" fill="#00B69B"/>
<path fill-rule="evenodd" clip-rule="evenodd" d="M1688.53 874.402C1735.73 606.695 1556.98 351.409 1289.27 304.205C1146.16 278.97 1203.91 645.262 1097.79 728.25C1005.4 800.496 741.046 578.87 719.077 703.461C671.873 971.168 850.626 1226.45 1118.33 1273.66C1386.04 1320.86 1641.33 1142.11 1688.53 874.402Z" fill="#00B69B"/>
</g>
<defs>
<clipPath id="clip0_183_2151">
<rect width="1141" height="820" rx="14" fill="white"/>
</clipPath>
</defs>
</svg>
