<svg width="28" height="27" viewBox="0 0 28 27" fill="none" xmlns="http://www.w3.org/2000/svg">
<path d="M12.9974 23.1444H14.9318V21.4281C16.0307 21.2791 17.0255 20.8663 17.9164 20.1896C18.8072 19.5131 19.2527 18.4875 19.2527 17.1126C19.2527 16.1209 18.9602 15.2436 18.3754 14.4808C17.7905 13.7181 16.6481 13.0299 14.9481 12.416C13.4587 11.9074 12.4698 11.4669 11.9813 11.0946C11.4927 10.7222 11.2485 10.2018 11.2485 9.53342C11.2485 8.86499 11.4986 8.32193 11.999 7.90425C12.4993 7.48657 13.1899 7.27773 14.0708 7.27773C14.8082 7.27773 15.403 7.45162 15.8551 7.79941C16.3075 8.14721 16.6554 8.58354 16.8989 9.10842L18.6477 8.4054C18.3517 7.65173 17.869 7.00655 17.1999 6.46987C16.5305 5.93319 15.7981 5.63392 15.0027 5.57206V3.85577H13.0682V5.57206C11.8605 5.80463 10.9329 6.29456 10.2855 7.04185C9.63785 7.78938 9.31403 8.6199 9.31403 9.53342C9.31403 10.5978 9.63644 11.4542 10.2813 12.1025C10.9261 12.7509 11.9768 13.3366 13.4333 13.8596C14.939 14.4118 15.9675 14.9073 16.5188 15.346C17.0699 15.7845 17.3455 16.3733 17.3455 17.1126C17.3455 18.0008 17.0249 18.646 16.3839 19.0481C15.7426 19.4504 15.0188 19.6516 14.2125 19.6516C13.4152 19.6516 12.7019 19.412 12.0726 18.9326C11.4432 18.4531 10.9595 17.752 10.6216 16.8293L8.82917 17.5595C9.19609 18.6109 9.72321 19.4463 10.4105 20.0656C11.0981 20.6849 11.9604 21.1155 12.9974 21.3573V23.1444ZM14 26.9584C12.1402 26.9584 10.3916 26.6047 8.75444 25.8973C7.11701 25.1899 5.69255 24.2305 4.48107 23.019C3.26958 21.8075 2.31014 20.3831 1.60276 18.7456C0.895366 17.1084 0.541672 15.3599 0.541672 13.5001C0.541672 11.6402 0.895366 9.89171 1.60276 8.25452C2.31014 6.61709 3.26958 5.19263 4.48107 3.98114C5.69255 2.76966 7.11701 1.81022 8.75444 1.10283C10.3916 0.395443 12.1402 0.041748 14 0.041748C15.8599 0.041748 17.6084 0.395443 19.2456 1.10283C20.883 1.81022 22.3075 2.76966 23.5189 3.98114C24.7304 5.19263 25.6899 6.61709 26.3973 8.25452C27.1046 9.89171 27.4583 11.6402 27.4583 13.5001C27.4583 15.3599 27.1046 17.1084 26.3973 18.7456C25.6899 20.3831 24.7304 21.8075 23.5189 23.019C22.3075 24.2305 20.883 25.1899 19.2456 25.8973C17.6084 26.6047 15.8599 26.9584 14 26.9584ZM14 24.8334C17.1639 24.8334 19.8438 23.7355 22.0396 21.5397C24.2354 19.3438 25.3333 16.664 25.3333 13.5001C25.3333 10.3362 24.2354 7.65633 22.0396 5.4605C19.8438 3.26466 17.1639 2.16675 14 2.16675C10.8361 2.16675 8.15626 3.26466 5.96042 5.4605C3.76459 7.65633 2.66667 10.3362 2.66667 13.5001C2.66667 16.664 3.76459 19.3438 5.96042 21.5397C8.15626 23.7355 10.8361 24.8334 14 24.8334Z" fill="#4AD991"/>
</svg>
