<svg width="260" height="59" viewBox="0 0 260 59" fill="none" xmlns="http://www.w3.org/2000/svg">
<path fill-rule="evenodd" clip-rule="evenodd" d="M47.0316 12.5647V11.9883C46.9711 12.0112 46.9173 12.0311 46.8681 12.0493C46.7667 12.0868 46.6849 12.1171 46.6045 12.1505C45.2178 12.718 43.8312 13.2855 42.4446 13.8531C36.5571 16.2629 30.6695 18.6727 24.7781 21.0736C24.4408 21.211 24.3477 21.3852 24.348 21.7286C24.3549 28.4478 24.3553 35.1668 24.3557 41.8857C24.3558 43.9214 24.356 45.9571 24.3563 47.9928C24.3563 48.0954 24.3646 48.1982 24.3738 48.3113C24.3784 48.3679 24.3832 48.4271 24.3873 48.4902C24.4583 48.4639 24.5216 48.441 24.5798 48.42C24.6884 48.3809 24.779 48.3482 24.8682 48.3116C26.3414 47.7087 27.8146 47.1055 29.2878 46.5024C35.027 44.1526 40.7663 41.8027 46.5104 39.4647C46.9144 39.2998 47.0431 39.1119 47.0425 38.6804C47.0304 31.4272 47.0309 24.1743 47.0314 16.9212C47.0315 15.469 47.0316 14.0169 47.0316 12.5647ZM17.5614 46.4204C19.2388 47.1068 20.928 47.7979 22.6568 48.5052C22.6612 48.429 22.6659 48.362 22.6701 48.3011C22.6782 48.1858 22.6848 48.0922 22.6845 47.9987C22.6848 46.1825 22.6848 44.3663 22.6849 42.5502C22.685 35.6121 22.6852 28.6742 22.6941 21.7361C22.6948 21.3611 22.571 21.1973 22.2241 21.0559C16.6315 18.7775 11.0424 16.4908 5.45337 14.2041C3.78358 13.5209 2.1138 12.8377 0.443925 12.1548C0.356669 12.119 0.266426 12.0903 0.165359 12.0582C0.116184 12.0425 0.0644462 12.0261 0.00924373 12.0076V12.3578C0.00924373 13.6174 0.00929083 14.877 0.00933793 16.1366C0.00962064 23.6971 0.00990333 31.2575 6.38703e-07 38.8181C-0.000328773 39.1641 0.126742 39.2963 0.429401 39.4193C4.54132 41.0922 8.64968 42.7736 12.7581 44.4549C13.6477 44.819 14.5374 45.1831 15.427 45.547C16.1378 45.8379 16.8485 46.1287 17.5614 46.4204ZM43.8383 11.4855C44.4358 11.2404 45.0404 10.9924 45.6553 10.7403C45.578 10.7057 45.52 10.6793 45.4734 10.6581C45.4032 10.6261 45.3589 10.6059 45.3136 10.5873C44.4135 10.2189 43.5133 9.85042 42.6131 9.48198C36.3635 6.92399 30.1142 4.36608 23.8592 1.82089C23.6463 1.7344 23.3308 1.75268 23.1126 1.84145C16.2795 4.62406 9.4518 7.42029 2.62435 10.2164L1.84401 10.536C1.76186 10.5698 1.68307 10.6114 1.58701 10.6621C1.53565 10.6892 1.47934 10.7189 1.41494 10.7514C1.50542 10.7883 1.57976 10.8185 1.645 10.8451C1.72873 10.8791 1.79748 10.9071 1.86612 10.9352C2.8787 11.3497 3.89129 11.7642 4.90388 12.1788C10.9486 14.6532 16.9932 17.1277 23.0344 19.6105C23.3876 19.7554 23.679 19.744 24.0252 19.6017C28.1604 17.902 32.2984 16.2093 36.4363 14.5166C37.6188 14.0329 38.8012 13.5492 39.9836 13.0653C41.2577 12.5439 42.5312 12.0216 43.8383 11.4855ZM36.8332 29.7451L39.2819 34.4796C39.5631 35.024 39.3397 35.6633 38.7901 35.8862L33.5122 38.0333C32.6782 38.3724 31.7719 37.5595 32.0333 36.7067L33.8014 30.9317C33.0383 30.6935 32.4363 29.996 32.1923 28.9135C31.7299 26.86 32.729 24.2015 34.4242 22.9757C36.1193 21.7489 37.8686 22.4196 38.331 24.473C38.7218 26.2077 38.0683 28.3753 36.8332 29.7451Z" fill="white"/>
<path d="M95.2821 56.5622L94.6768 56.3604C94.6556 56.3532 94.6343 56.3475 94.6125 56.3428C93.3076 56.0523 92.7003 55.207 92.7003 53.6821V18.8039L92.902 9.73649C92.9062 9.55963 92.8372 9.38847 92.7122 9.26348L92.0406 8.59184C91.8564 8.40772 91.5805 8.3517 91.3394 8.44921L84.0016 11.4096C82.7724 10.5736 81.3612 9.86925 79.8006 9.31326C78.1015 8.70853 76.2079 8.40202 74.1723 8.40202C71.1522 8.40202 68.4485 9.12396 66.1359 10.5487C63.8212 11.9749 61.9862 14.0666 60.6829 16.7672C59.3915 19.4434 58.7369 22.7492 58.7369 26.5934C58.7369 29.3775 59.0626 31.8717 59.7052 34.0059C60.3561 36.1691 61.3509 38.0253 62.6605 39.5227C65.2858 42.5241 68.6389 44.0458 72.6267 44.0458C74.75 44.0458 76.7121 43.7278 78.4578 43.1008C79.7617 42.6319 80.9686 42.0433 82.0603 41.3452V53.4799C82.0603 54.931 81.4022 55.7998 79.9883 56.2136L78.5932 56.5461C78.3012 56.6156 78.0953 56.8765 78.0953 57.1768V57.8484C78.0953 58.2063 78.3857 58.4967 78.7436 58.4967H95.0767C95.4346 58.4967 95.725 58.2063 95.725 57.8484V57.1768C95.7255 56.8983 95.5471 56.6509 95.2821 56.5622ZM81.8591 13.3768V38.2468C80.312 39.4511 78.6995 40.061 77.0632 40.061C74.9539 40.061 73.331 39.0953 72.1024 37.1089C70.8286 35.0499 70.1829 31.4671 70.1829 26.4596C70.1829 21.3167 70.8524 17.5965 72.1734 15.4016C73.4482 13.2835 75.1136 12.2535 77.2649 12.2535C78.3188 12.2535 79.2327 12.3587 79.9816 12.5662C80.618 12.7425 81.2481 13.0148 81.8591 13.3768ZM132.837 41.0968L132.193 40.9033C131.468 40.6097 131.003 40.2659 130.811 39.8816V39.8811C130.589 39.4381 130.477 38.767 130.477 37.8858V19.6773L130.678 10.1395C130.682 9.96262 130.614 9.79249 130.489 9.6675L129.816 8.99482C129.66 8.83871 129.436 8.77336 129.22 8.81952L117.457 11.3738C117.159 11.4387 116.946 11.7021 116.946 12.0076V12.6803C116.946 12.9666 117.134 13.2187 117.408 13.3011L118.08 13.5029C118.097 13.5081 118.115 13.5127 118.132 13.5163C118.81 13.659 119.28 13.8861 119.492 14.1729C119.62 14.3477 119.836 14.8135 119.837 15.9695L119.572 37.5487C118.725 38.1353 117.874 38.5865 117.037 38.8904C116.126 39.2213 115.07 39.3889 113.897 39.3889C112.785 39.3889 111.896 39.1067 111.18 38.5253C110.505 37.9787 110.176 37.1094 110.176 35.8693V19.682L110.512 10.1488C110.518 9.96935 110.449 9.79509 110.322 9.66802L109.651 8.99534C109.498 8.84234 109.28 8.77596 109.068 8.81745L97.0361 11.17C96.7317 11.2297 96.5123 11.4962 96.5123 11.8064V12.4791C96.5123 12.7581 96.6907 13.0055 96.9552 13.0942L97.7617 13.3634C97.7804 13.3696 97.7996 13.3748 97.8188 13.3794C98.4323 13.5236 98.8768 13.7643 99.1408 14.0941C99.3213 14.3197 99.5365 14.8171 99.537 15.9037L99.3363 33.1703C99.2891 35.7386 99.7118 37.8495 100.593 39.4449C101.487 41.0625 102.74 42.2518 104.317 42.9794C105.853 43.6879 107.561 44.0473 109.395 44.0473C111.811 44.0473 113.952 43.6075 115.758 42.7403C117.184 42.0552 118.543 41.2332 119.81 40.2897L120.247 43.1604C120.298 43.4908 120.591 43.7289 120.925 43.7102L132.688 43.0386C133.032 43.0188 133.3 42.7351 133.3 42.3913V41.7196C133.299 41.4318 133.111 41.1792 132.837 41.0968ZM169.512 39.4179L168.907 38.8806C168.788 38.7753 168.635 38.7167 168.477 38.7167H166.997C165.473 38.7167 164.822 38.0056 164.822 36.3398V21.4848C164.822 16.9228 163.653 13.5604 161.347 11.4916C159.061 9.44137 155.806 8.40202 151.673 8.40202C149.157 8.40202 146.787 8.72772 144.631 9.3698C142.433 10.0243 140.635 11.0274 139.287 12.352C137.887 13.7269 137.177 15.4431 137.177 17.4523C137.177 18.8428 137.63 19.974 138.523 20.8142C139.406 21.6445 140.527 22.0657 141.858 22.0657C143.292 22.0657 144.513 21.546 145.487 20.5201C146.438 19.5186 146.972 17.9689 147.074 15.9125L147.201 15.2154C147.204 15.1993 147.207 15.1833 147.208 15.1672C147.371 13.6123 147.724 12.5257 148.254 11.9381C148.758 11.3806 149.436 11.1099 150.327 11.1099C151.663 11.1099 152.613 11.6114 153.232 12.6435C153.907 13.7689 154.249 15.8165 154.249 18.7292V23.4976C153.502 23.633 152.749 23.7668 151.962 23.9053C151.002 24.0739 150.208 24.217 149.531 24.3441C144.829 25.2569 141.317 26.6484 139.092 28.4792C136.795 30.3697 135.63 32.4945 135.63 34.7937C135.63 37.7608 136.601 40.0771 138.517 41.6771C140.399 43.2491 142.744 44.0458 145.487 44.0458C147.854 44.0458 149.824 43.4965 151.341 42.4131C152.512 41.577 153.674 40.5854 154.804 39.4578C155.26 40.6305 155.977 41.6138 156.944 42.3908C158.2 43.3995 159.908 43.9114 162.022 43.9114C163.965 43.9114 165.51 43.5883 166.615 42.9509C167.689 42.3311 168.689 41.4406 169.588 40.3048C169.803 40.0356 169.769 39.6461 169.512 39.4179ZM154.25 26.1749V36.3709C153.308 37.1405 152.484 37.7183 151.799 38.0897C151.105 38.4662 150.382 38.6498 149.588 38.6498C148.556 38.6498 147.701 38.267 146.972 37.4797C146.239 36.6888 145.867 35.4461 145.867 33.786C145.867 31.7913 146.413 30.2566 147.534 29.0943C148.67 27.9175 150.219 27.0643 152.139 26.5576C152.71 26.47 153.229 26.3792 153.681 26.2885L154.25 26.1749ZM193.009 8.40202C191.695 8.40202 190.359 8.76766 189.036 9.48909C187.749 10.1913 186.565 11.1021 185.516 12.1974C184.965 12.7726 184.466 13.382 184.021 14.02L183.572 9.72144C183.556 9.57363 183.49 9.43515 183.385 9.33038L182.712 8.65874C182.538 8.48448 182.28 8.42432 182.047 8.50315L170.486 12.4013C170.222 12.49 170.044 12.7374 170.044 13.0153V13.688C170.044 13.9816 170.242 14.2388 170.526 14.3145L171.534 14.5837C171.548 14.5874 171.56 14.5905 171.574 14.5931C172.299 14.7378 172.786 14.9784 173.021 15.3077C173.197 15.5536 173.405 16.0665 173.405 17.1162V38.1555C173.405 38.8785 173.269 39.4641 173 39.8956C172.752 40.2913 172.256 40.604 171.524 40.8255L170.526 41.0921C170.242 41.1678 170.044 41.4251 170.044 41.7186V42.3902C170.044 42.7481 170.335 43.0386 170.693 43.0386H188.102C188.459 43.0386 188.75 42.7481 188.75 42.3902V41.7186C188.75 41.4282 188.557 41.173 188.277 41.0947L186.129 40.4899C184.844 40.1238 184.246 39.254 184.246 37.7525V19.1172C184.494 18.4678 184.752 17.8849 185.014 17.3823C185.268 16.8932 185.593 16.4685 185.981 16.1199C186.009 16.095 186.035 16.0676 186.058 16.0385C186.572 15.3835 186.959 15.4281 187.086 15.4426C187.481 15.4882 187.839 15.7419 188.179 16.2174C188.2 16.2465 188.223 16.2735 188.248 16.2984L188.353 16.4026C189.903 18.4222 191.74 19.4465 193.815 19.4465C195.191 19.4465 196.393 18.9683 197.386 18.0254C198.39 17.0727 198.9 15.7268 198.9 14.0262C198.9 12.4267 198.387 11.0777 197.376 10.0165C196.358 8.94503 194.888 8.40202 193.009 8.40202ZM223.243 37.2935C223.117 37.1675 222.943 37.0985 222.766 37.1037C222.587 37.1089 222.419 37.1877 222.3 37.321C221.624 38.0814 220.944 38.6882 220.278 39.1254C219.664 39.5289 218.967 39.7249 218.147 39.7249C217.261 39.7249 216.553 39.4029 215.983 38.74C215.396 38.0591 215.098 37.0026 215.098 35.6007V12.0512H222.046C222.404 12.0512 222.694 11.7607 222.694 11.4029V10.0586C222.694 9.7007 222.404 9.41026 222.046 9.41026H215.179L215.367 0.662296C215.371 0.488031 215.304 0.319485 215.182 0.19501C215.061 0.070536 214.894 0 214.719 0H214.047C213.863 0 213.688 0.0777904 213.565 0.214194L208.065 6.3181C207.126 7.25477 206.169 8.00733 205.22 8.55605C204.278 9.10063 203.135 9.52747 201.823 9.82517L200.228 10.0902C199.916 10.1421 199.686 10.4128 199.686 10.7297V11.4024C199.686 11.7602 199.977 12.0507 200.335 12.0507H204.324V34.3902C204.324 37.7043 205.199 40.173 206.924 41.7274C208.63 43.2652 211.027 44.0447 214.046 44.0447C216.39 44.0447 218.42 43.5634 220.081 42.6148C221.741 41.6662 223.065 40.3665 224.015 38.7509C224.165 38.4963 224.123 38.1726 223.915 37.9636L223.243 37.2935ZM257.729 16.6609C257.729 16.6604 257.729 16.6609 257.729 16.6609C256.219 14.0122 254.132 11.95 251.527 10.5316C248.933 9.11877 245.957 8.40254 242.681 8.40254C239.404 8.40254 236.416 9.13019 233.799 10.5658C231.172 12.0071 229.075 14.0801 227.566 16.7278C226.06 19.3687 225.297 22.5299 225.297 26.1235C225.297 29.7084 226.011 32.8856 227.42 35.5665C228.839 38.2655 230.881 40.3784 233.491 41.8462C236.087 43.3062 239.179 44.0463 242.682 44.0463C246.184 44.0463 249.265 43.3056 251.84 41.8451C254.425 40.3779 256.455 38.2779 257.874 35.6028C259.285 32.9421 260 29.753 260 26.124C259.999 22.4863 259.235 19.3023 257.729 16.6609ZM237.437 16.6303C237.834 14.495 238.47 13.0096 239.325 12.214C240.172 11.4262 241.27 11.0435 242.681 11.0435C244.09 11.0435 245.175 11.4247 245.998 12.2089C246.833 13.0045 247.459 14.4924 247.858 16.6303C248.274 18.8672 248.485 22.1061 248.485 26.2573C248.485 30.3645 248.274 33.5816 247.858 35.8185C247.459 37.9569 246.833 39.4444 245.997 40.2405C245.175 41.0241 244.09 41.4053 242.681 41.4053C241.269 41.4053 240.171 41.0226 239.324 40.2353C238.469 39.4397 237.834 37.9538 237.436 35.8185C237.02 33.5858 236.809 30.3691 236.809 26.2573C236.809 22.102 237.02 18.863 237.437 16.6303Z" fill="white"/>
</svg>
