<svg width="18" height="18" viewBox="0 0 18 18" fill="none" xmlns="http://www.w3.org/2000/svg">
<path d="M0.5 17.5V16H2.5V2.30775C2.5 1.80258 2.675 1.375 3.025 1.025C3.375 0.675 3.80258 0.5 4.30775 0.5H13.6923C14.1974 0.5 14.625 0.675 14.975 1.025C15.325 1.375 15.5 1.80258 15.5 2.30775V16H17.5V17.5H0.5ZM14 16V2.30775C14 2.23075 13.9679 2.16025 13.9038 2.09625C13.8398 2.03208 13.7692 2 13.6923 2H4.30775C4.23075 2 4.16025 2.03208 4.09625 2.09625C4.03208 2.16025 4 2.23075 4 2.30775V16H14ZM11.1155 9.8845C11.3603 9.8845 11.5689 9.79833 11.7413 9.626C11.9138 9.4535 12 9.24483 12 9C12 8.75517 11.9138 8.5465 11.7413 8.374C11.5689 8.20167 11.3603 8.1155 11.1155 8.1155C10.8705 8.1155 10.6618 8.20167 10.4895 8.374C10.317 8.5465 10.2308 8.75517 10.2308 9C10.2308 9.24483 10.317 9.4535 10.4895 9.626C10.6618 9.79833 10.8705 9.8845 11.1155 9.8845Z" fill="#262626"/>
</svg>
