<svg width="26" height="26" viewBox="0 0 26 26" fill="none" xmlns="http://www.w3.org/2000/svg">
<path d="M0.958313 25.0417V22.9167H3.79165V3.51935C3.79165 2.8037 4.03956 2.19796 4.5354 1.70212C5.03123 1.20629 5.63697 0.958374 6.35263 0.958374H19.6473C20.363 0.958374 20.9687 1.20629 21.4646 1.70212C21.9604 2.19796 22.2083 2.8037 22.2083 3.51935V22.9167H25.0416V25.0417H0.958313ZM20.0833 22.9167V3.51935C20.0833 3.41027 20.0379 3.31039 19.947 3.21973C19.8563 3.12882 19.7564 3.08337 19.6473 3.08337H6.35263C6.24354 3.08337 6.14367 3.12882 6.053 3.21973C5.9621 3.31039 5.91665 3.41027 5.91665 3.51935V22.9167H20.0833ZM15.9969 14.2531C16.3438 14.2531 16.6393 14.131 16.8834 13.8869C17.1278 13.6425 17.25 13.3469 17.25 13C17.25 12.6532 17.1278 12.3576 16.8834 12.1132C16.6393 11.8691 16.3438 11.747 15.9969 11.747C15.6499 11.747 15.3542 11.8691 15.1101 12.1132C14.8657 12.3576 14.7435 12.6532 14.7435 13C14.7435 13.3469 14.8657 13.6425 15.1101 13.8869C15.3542 14.131 15.6499 14.2531 15.9969 14.2531Z" fill="#8280FF"/>
</svg>
