<svg width="32" height="22" viewBox="0 0 32 22" fill="none" xmlns="http://www.w3.org/2000/svg">
<path d="M17.0446 10.4932C17.6474 9.83749 18.0933 9.08465 18.3823 8.23465C18.6711 7.38465 18.8155 6.50832 18.8155 5.60567C18.8155 4.70302 18.6711 3.82669 18.3823 2.97669C18.0933 2.12669 17.6474 1.37385 17.0446 0.718172C18.2887 0.861728 19.3217 1.39888 20.1436 2.32963C20.9653 3.26062 21.3761 4.35263 21.3761 5.60567C21.3761 6.85895 20.9653 7.95096 20.1436 8.88171C19.3217 9.81246 18.2887 10.3496 17.0446 10.4932ZM24.4821 21.3526V18.0288C24.4821 17.2565 24.325 16.5217 24.0107 15.8244C23.6965 15.1272 23.2506 14.5289 22.6731 14.0295C23.7592 14.391 24.759 14.8787 25.6725 15.4926C26.586 16.1065 27.0428 16.9519 27.0428 18.0288V21.3526H24.4821ZM27.0428 12.0625V9.22915H24.2094V7.10415H27.0428V4.27082H29.1678V7.10415H32.0011V9.22915H29.1678V12.0625H27.0428ZM11.0238 10.564C9.66026 10.564 8.49293 10.0786 7.5218 9.10767C6.55091 8.13655 6.06547 6.96921 6.06547 5.60567C6.06547 4.24213 6.55091 3.07492 7.5218 2.10403C8.49293 1.1329 9.66026 0.647339 11.0238 0.647339C12.3873 0.647339 13.5546 1.1329 14.5254 2.10403C15.4966 3.07492 15.9821 4.24213 15.9821 5.60567C15.9821 6.96921 15.4966 8.13655 14.5254 9.10767C13.5546 10.0786 12.3873 10.564 11.0238 10.564ZM0.398804 21.3526V18.203C0.398804 17.5093 0.58722 16.8669 0.964054 16.2757C1.34089 15.6844 1.84439 15.2299 2.47457 14.9121C3.87495 14.2257 5.2876 13.7109 6.71253 13.3676C8.13723 13.0243 9.57432 12.8526 11.0238 12.8526C12.4731 12.8526 13.9101 13.0243 15.3351 13.3676C16.7598 13.7109 18.1723 14.2257 19.5727 14.9121C20.2029 15.2299 20.7064 15.6844 21.0832 16.2757C21.4603 16.8669 21.6488 17.5093 21.6488 18.203V21.3526H0.398804ZM11.0238 8.43901C11.803 8.43901 12.47 8.16157 13.0248 7.60671C13.5797 7.05185 13.8571 6.38484 13.8571 5.60567C13.8571 4.82651 13.5797 4.15949 13.0248 3.60463C12.47 3.04977 11.803 2.77234 11.0238 2.77234C10.2446 2.77234 9.57762 3.04977 9.02276 3.60463C8.4679 4.15949 8.19047 4.82651 8.19047 5.60567C8.19047 6.38484 8.4679 7.05185 9.02276 7.60671C9.57762 8.16157 10.2446 8.43901 11.0238 8.43901ZM2.5238 19.2276H19.5238V18.203C19.5238 17.9162 19.4407 17.6505 19.2745 17.4062C19.1082 17.162 18.8825 16.9627 18.5973 16.8083C17.3768 16.2072 16.1324 15.7517 14.864 15.4419C13.5954 15.1324 12.3153 14.9776 11.0238 14.9776C9.73204 14.9776 8.45196 15.1324 7.18357 15.4419C5.91495 15.7517 4.67041 16.2072 3.44995 16.8083C3.16473 16.9627 2.93912 17.162 2.77314 17.4062C2.60691 17.6505 2.5238 17.9162 2.5238 18.203V19.2276Z" fill="#FEC53D"/>
</svg>
