<svg width="24" height="16" viewBox="0 0 24 16" fill="none" xmlns="http://www.w3.org/2000/svg">
<path d="M12.5963 7.64226C13.0218 7.17943 13.3365 6.64801 13.5405 6.04801C13.7443 5.44801 13.8463 4.82943 13.8463 4.19226C13.8463 3.55509 13.7443 2.93651 13.5405 2.33651C13.3365 1.73651 13.0218 1.20509 12.5963 0.742261C13.4744 0.843594 14.2036 1.22276 14.7838 1.87976C15.3638 2.53693 15.6538 3.30776 15.6538 4.19226C15.6538 5.07693 15.3638 5.84776 14.7838 6.50476C14.2036 7.16176 13.4744 7.54093 12.5963 7.64226ZM17.8463 15.3078V12.9615C17.8463 12.4163 17.7353 11.8977 17.5135 11.4055C17.2917 10.9133 16.9769 10.491 16.5693 10.1385C17.3359 10.3937 18.0417 10.7379 18.6865 11.1713C19.3313 11.6046 19.6538 12.2013 19.6538 12.9615V15.3078H17.8463ZM19.6538 8.75001V6.75001H17.6538V5.25001H19.6538V3.25001H21.1538V5.25001H23.1538V6.75001H21.1538V8.75001H19.6538ZM8.34625 7.69226C7.38375 7.69226 6.55975 7.34959 5.87425 6.66426C5.18892 5.97876 4.84625 5.15476 4.84625 4.19226C4.84625 3.22976 5.18892 2.40584 5.87425 1.72051C6.55975 1.03501 7.38375 0.692261 8.34625 0.692261C9.30875 0.692261 10.1327 1.03501 10.818 1.72051C11.5035 2.40584 11.8463 3.22976 11.8463 4.19226C11.8463 5.15476 11.5035 5.97876 10.818 6.66426C10.1327 7.34959 9.30875 7.69226 8.34625 7.69226ZM0.846252 15.3078V13.0845C0.846252 12.5948 0.979253 12.1413 1.24525 11.724C1.51125 11.3067 1.86667 10.9858 2.3115 10.7615C3.3 10.277 4.29717 9.91359 5.303 9.67126C6.30867 9.42893 7.32309 9.30776 8.34625 9.30776C9.36925 9.30776 10.3837 9.42893 11.3895 9.67126C12.3952 9.91359 13.3923 10.277 14.3808 10.7615C14.8256 10.9858 15.181 11.3067 15.447 11.724C15.7132 12.1413 15.8463 12.5948 15.8463 13.0845V15.3078H0.846252ZM8.34625 6.19226C8.89625 6.19226 9.36709 5.99643 9.75875 5.60476C10.1504 5.21309 10.3463 4.74226 10.3463 4.19226C10.3463 3.64226 10.1504 3.17143 9.75875 2.77976C9.36709 2.38809 8.89625 2.19226 8.34625 2.19226C7.79625 2.19226 7.32542 2.38809 6.93375 2.77976C6.54209 3.17143 6.34625 3.64226 6.34625 4.19226C6.34625 4.74226 6.54209 5.21309 6.93375 5.60476C7.32542 5.99643 7.79625 6.19226 8.34625 6.19226ZM2.34625 13.8078H14.3463V13.0845C14.3463 12.882 14.2876 12.6945 14.1703 12.522C14.0529 12.3497 13.8936 12.209 13.6923 12.1C12.8308 11.6757 11.9523 11.3542 11.057 11.1355C10.1615 10.917 9.25792 10.8078 8.34625 10.8078C7.43442 10.8078 6.53084 10.917 5.6355 11.1355C4.74 11.3542 3.8615 11.6757 3 12.1C2.79867 12.209 2.63942 12.3497 2.52225 12.522C2.40492 12.6945 2.34625 12.882 2.34625 13.0845V13.8078Z" fill="#242424"/>
</svg>
