<svg width="32" height="16" viewBox="0 0 32 16" fill="none" xmlns="http://www.w3.org/2000/svg">
<path d="M7.91667 10.2883C7.28271 10.2883 6.74284 10.0654 6.29706 9.61965C5.85128 9.17387 5.6284 8.634 5.6284 8.00004C5.6284 7.36608 5.85128 6.82621 6.29706 6.38044C6.74284 5.93466 7.28271 5.71177 7.91667 5.71177C8.55062 5.71177 9.09049 5.93466 9.53627 6.38044C9.98205 6.82621 10.2049 7.36608 10.2049 8.00004C10.2049 8.634 9.98205 9.17387 9.53627 9.61965C9.09049 10.0654 8.55062 10.2883 7.91667 10.2883ZM7.91667 15.7917C5.75531 15.7917 3.91635 15.0334 2.39981 13.5169C0.883271 12.0004 0.125 10.1614 0.125 8.00004C0.125 5.83868 0.883271 3.99973 2.39981 2.48319C3.91635 0.966644 5.75531 0.208374 7.91667 0.208374C9.4351 0.208374 10.8082 0.6002 12.036 1.38385C13.2638 2.16774 14.2009 3.19258 14.8474 4.45837H27.6002L31.1419 8.00004L25.693 13.4213L23.064 11.4464L20.367 13.4485L17.6017 11.5417H14.8474C14.2009 12.7985 13.2638 13.821 12.036 14.6091C10.8082 15.3975 9.4351 15.7917 7.91667 15.7917ZM7.91667 13.6667C9.27525 13.6667 10.4517 13.2562 11.4459 12.4353C12.4404 11.6143 13.0894 10.6081 13.3928 9.41671H18.2693L20.3097 10.8281L23.0778 8.80365L25.4833 10.6428L28.1261 8.00004L26.7095 6.58337H13.3928C13.0894 5.39196 12.4404 4.38577 11.4459 3.56481C10.4517 2.74385 9.27525 2.33337 7.91667 2.33337C6.35833 2.33337 5.02431 2.88823 3.91458 3.99796C2.80486 5.10768 2.25 6.44171 2.25 8.00004C2.25 9.55837 2.80486 10.8924 3.91458 12.0021C5.02431 13.1118 6.35833 13.6667 7.91667 13.6667Z" fill="#4AD991"/>
</svg>
