<svg width="24" height="24" viewBox="0 0 24 24" fill="none" xmlns="http://www.w3.org/2000/svg">
<path d="M7.35402 23.3332C5.48558 23.3332 3.90391 22.6857 2.60902 21.3908C1.31413 20.0959 0.666687 18.5143 0.666687 16.6458C0.666687 15.8614 0.800465 15.0991 1.06802 14.3588C1.33558 13.6186 1.71891 12.9477 2.21802 12.3462L6.92569 6.6845L3.92302 0.666504H20.077L17.0744 6.6845L21.782 12.3462C22.2811 12.9477 22.6645 13.6186 22.932 14.3588C23.1996 15.0991 23.3334 15.8614 23.3334 16.6458C23.3334 18.5143 22.6825 20.0959 21.3807 21.3908C20.0791 22.6857 18.5009 23.3332 16.646 23.3332H7.35402ZM12 16.9868C11.3351 16.9868 10.7672 16.7514 10.2964 16.2805C9.82524 15.8096 9.58969 15.2417 9.58969 14.5768C9.58969 13.9117 9.82524 13.3437 10.2964 12.8728C10.7672 12.4019 11.3351 12.1665 12 12.1665C12.6649 12.1665 13.2328 12.4019 13.7037 12.8728C14.1748 13.3437 14.4104 13.9117 14.4104 14.5768C14.4104 15.2417 14.1748 15.8096 13.7037 16.2805C13.2328 16.7514 12.6649 16.9868 12 16.9868ZM8.75635 5.83317H15.2564L16.8334 2.6665H7.16669L8.75635 5.83317ZM7.35402 21.3332H16.646C17.9556 21.3332 19.0641 20.8772 19.9717 19.9652C20.8795 19.0532 21.3334 17.9467 21.3334 16.6458C21.3334 16.0954 21.2389 15.5617 21.05 15.0448C20.8611 14.5277 20.5915 14.0606 20.241 13.6435L15.405 7.83317H8.62835L3.77169 13.6228C3.42124 14.0399 3.14946 14.5105 2.95635 15.0345C2.76324 15.5583 2.66669 16.0954 2.66669 16.6458C2.66669 17.9467 3.12269 19.0532 4.03469 19.9652C4.94669 20.8772 6.05313 21.3332 7.35402 21.3332Z" fill="#1C1B1F"/>
</svg>
