<svg width="26" height="26" viewBox="0 0 26 26" fill="none" xmlns="http://www.w3.org/2000/svg">
<path d="M12.0563 22.0772H13.877V20.4618C14.9112 20.3216 15.8476 19.9331 16.686 19.2962C17.5245 18.6595 17.9437 17.6942 17.9437 16.4002C17.9437 15.4668 17.6685 14.6412 17.118 13.9232C16.5676 13.2054 15.4923 12.5576 13.8923 11.9798C12.4906 11.5012 11.5598 11.0866 11.1 10.7362C10.6402 10.3857 10.4103 9.89594 10.4103 9.26683C10.4103 8.63772 10.6458 8.12661 11.1167 7.7335C11.5876 7.34039 12.2376 7.14383 13.0667 7.14383C13.7607 7.14383 14.3205 7.3075 14.746 7.63483C15.1718 7.96216 15.4992 8.37283 15.7283 8.86683L17.3743 8.20516C17.0957 7.49583 16.6415 6.88861 16.0117 6.3835C15.3817 5.87839 14.6923 5.59672 13.9437 5.5385V3.92316H12.123V5.5385C10.9863 5.75739 10.1133 6.2185 9.50401 6.92183C8.89445 7.62539 8.58968 8.40705 8.58968 9.26683C8.58968 10.2686 8.89312 11.0746 9.50001 11.6848C10.1069 12.2951 11.0958 12.8463 12.4667 13.3385C13.8838 13.8583 14.8518 14.3246 15.3707 14.7375C15.8893 15.1502 16.1487 15.7044 16.1487 16.4002C16.1487 17.2362 15.847 17.8434 15.2437 18.2218C14.6401 18.6005 13.9589 18.7898 13.2 18.7898C12.4496 18.7898 11.7782 18.5643 11.186 18.1132C10.5936 17.6618 10.1383 17.0019 9.82034 16.1335L8.13334 16.8208C8.47868 17.8104 8.97479 18.5966 9.62168 19.1795C10.2688 19.7624 11.0803 20.1676 12.0563 20.3952V22.0772ZM13 25.6668C11.2496 25.6668 9.6039 25.3339 8.06301 24.6682C6.5219 24.0024 5.18123 23.0994 4.04101 21.9592C2.90079 20.8189 1.99779 19.4783 1.33201 17.9372C0.666233 16.3963 0.333344 14.7506 0.333344 13.0002C0.333344 11.2497 0.666233 9.60405 1.33201 8.06316C1.99779 6.52205 2.90079 5.18138 4.04101 4.04116C5.18123 2.90094 6.5219 1.99794 8.06301 1.33216C9.6039 0.666386 11.2496 0.333496 13 0.333496C14.7505 0.333496 16.3961 0.666386 17.937 1.33216C19.4781 1.99794 20.8188 2.90094 21.959 4.04116C23.0992 5.18138 24.0022 6.52205 24.668 8.06316C25.3338 9.60405 25.6667 11.2497 25.6667 13.0002C25.6667 14.7506 25.3338 16.3963 24.668 17.9372C24.0022 19.4783 23.0992 20.8189 21.959 21.9592C20.8188 23.0994 19.4781 24.0024 17.937 24.6682C16.3961 25.3339 14.7505 25.6668 13 25.6668ZM13 23.6668C15.9778 23.6668 18.5 22.6335 20.5667 20.5668C22.6333 18.5002 23.6667 15.9779 23.6667 13.0002C23.6667 10.0224 22.6333 7.50016 20.5667 5.4335C18.5 3.36683 15.9778 2.3335 13 2.3335C10.0222 2.3335 7.50001 3.36683 5.43334 5.4335C3.36668 7.50016 2.33334 10.0224 2.33334 13.0002C2.33334 15.9779 3.36668 18.5002 5.43334 20.5668C7.50001 22.6335 10.0222 23.6668 13 23.6668Z" fill="white"/>
</svg>
