<svg width="22" height="16" viewBox="0 0 22 16" fill="none" xmlns="http://www.w3.org/2000/svg">
<path d="M12.75 8.71148C12.0513 8.71148 11.46 8.46948 10.976 7.98548C10.492 7.50148 10.25 6.91015 10.25 6.21148C10.25 5.51281 10.492 4.92148 10.976 4.43748C11.46 3.95348 12.0513 3.71148 12.75 3.71148C13.4487 3.71148 14.04 3.95348 14.524 4.43748C15.008 4.92148 15.25 5.51281 15.25 6.21148C15.25 6.91015 15.008 7.50148 14.524 7.98548C14.04 8.46948 13.4487 8.71148 12.75 8.71148ZM6.15375 11.8077C5.65675 11.8077 5.23125 11.6307 4.87725 11.2767C4.52325 10.9227 4.34625 10.4971 4.34625 9.99998V2.42298C4.34625 1.92598 4.52325 1.50048 4.87725 1.14648C5.23125 0.792478 5.65675 0.615479 6.15375 0.615479H19.346C19.8432 0.615479 20.2688 0.792478 20.6228 1.14648C20.9768 1.50048 21.1538 1.92598 21.1538 2.42298V9.99998C21.1538 10.4971 20.9768 10.9227 20.6228 11.2767C20.2688 11.6307 19.8432 11.8077 19.346 11.8077H6.15375ZM7.65375 10.3077H17.8463C17.8463 9.80906 18.0233 9.38306 18.3773 9.02973C18.7313 8.67656 19.1568 8.49998 19.6538 8.49998V3.92298C19.1551 3.92298 18.7292 3.74598 18.376 3.39198C18.0228 3.03798 17.8463 2.61248 17.8463 2.11548H7.65375C7.65375 2.61415 7.47675 3.04006 7.12275 3.39323C6.76875 3.74639 6.34325 3.92298 5.84625 3.92298V8.49998C6.34492 8.49998 6.77084 8.67698 7.124 9.03098C7.47717 9.38498 7.65375 9.81056 7.65375 10.3077ZM18.173 15.3077H2.654C2.15684 15.3077 1.73125 15.1307 1.37725 14.7767C1.02325 14.4227 0.846252 13.9971 0.846252 13.5V3.59623H2.34625V13.5C2.34625 13.5768 2.37825 13.6473 2.44225 13.7115C2.50642 13.7756 2.577 13.8077 2.654 13.8077H18.173V15.3077ZM6.15375 10.3077H5.84625V2.11548H6.15375C6.07042 2.11548 5.99834 2.1459 5.9375 2.20673C5.87667 2.26756 5.84625 2.33964 5.84625 2.42298V9.99998C5.84625 10.0833 5.87667 10.1554 5.9375 10.2162C5.99834 10.2772 6.07042 10.3077 6.15375 10.3077Z" fill="#262626"/>
</svg>
