<svg width="20" height="26" viewBox="0 0 20 26" fill="none" xmlns="http://www.w3.org/2000/svg">
<path d="M9.23067 21.8335H11.2307V20.5002H12.8973C13.1811 20.5002 13.4188 20.4044 13.6103 20.2128C13.8017 20.0215 13.8973 19.7839 13.8973 19.5002V15.5002C13.8973 15.2164 13.8017 14.9788 13.6103 14.7875C13.4188 14.5959 13.1811 14.5002 12.8973 14.5002H8.564V12.5002H13.8973V10.5002H11.2307V9.16683H9.23067V10.5002H7.564C7.28022 10.5002 7.04267 10.5959 6.85133 10.7875C6.65978 10.9788 6.564 11.2164 6.564 11.5002V15.5002C6.564 15.7839 6.65978 16.0215 6.85133 16.2128C7.04267 16.4044 7.28022 16.5002 7.564 16.5002H11.8973V18.5002H6.564V20.5002H9.23067V21.8335ZM2.41033 25.6668C1.73678 25.6668 1.16667 25.4335 0.7 24.9668C0.233333 24.5002 0 23.9301 0 23.2565V2.74383C0 2.07027 0.233333 1.50016 0.7 1.0335C1.16667 0.566829 1.73678 0.333496 2.41033 0.333496H13L20 7.3335V23.2565C20 23.9301 19.7667 24.5002 19.3 24.9668C18.8333 25.4335 18.2632 25.6668 17.5897 25.6668H2.41033ZM12 7.51283V2.3335H2.41033C2.30767 2.3335 2.21367 2.37627 2.12833 2.46183C2.04278 2.54716 2 2.64116 2 2.74383V23.2565C2 23.3592 2.04278 23.4532 2.12833 23.5385C2.21367 23.6241 2.30767 23.6668 2.41033 23.6668H17.5897C17.6923 23.6668 17.7863 23.6241 17.8717 23.5385C17.9572 23.4532 18 23.3592 18 23.2565V7.51283H12Z" fill="#1C1B1F"/>
</svg>
